<?xml version="1.0" encoding="UTF-8"?>
<svg width="757px" height="102px" viewBox="0 0 757 102" version="1.1" xmlns="http://www.w3.org/2000/svg" xmlns:xlink="http://www.w3.org/1999/xlink">
    <!-- Generator: Sketch 53.1 (72631) - https://sketchapp.com -->
    <title>PROJECTS</title>
    <desc>Created with Sketch.</desc>
    <g id="Page-1" stroke="none" stroke-width="1" fill="none" fill-rule="evenodd" opacity="0.0299999993">
        <g id="STUDIO" transform="translate(-279.000000, -246.000000)" fill="#262834" fill-rule="nonzero">
            <g id="BEYOND-" transform="translate(-34.000000, 239.000000)">
                <path d="M356.04,9 C364.720043,9 372.256635,10.4466522 378.65,13.34 C385.043365,16.2333478 389.966649,20.3399734 393.42,25.66 C396.873351,30.9800266 398.6,37.2799636 398.6,44.56 C398.6,51.7467026 396.873351,58.0233065 393.42,63.39 C389.966649,68.7566935 385.043365,72.8633191 378.65,75.71 C372.256635,78.5566809 364.720043,79.98 356.04,79.98 L336.3,79.98 L336.3,107 L313.62,107 L313.62,9 L356.04,9 Z M354.78,61.5 C361.593367,61.5 366.773316,60.0300147 370.32,57.09 C373.866684,54.1499853 375.64,49.9733604 375.64,44.56 C375.64,39.0533058 373.866684,34.8300147 370.32,31.89 C366.773316,28.9499853 361.593367,27.48 354.78,27.48 L336.3,27.48 L336.3,61.5 L354.78,61.5 Z M478.54,107 L459.64,79.7 L438.78,79.7 L438.78,107 L416.1,107 L416.1,9 L458.52,9 C467.200043,9 474.736635,10.4466522 481.13,13.34 C487.523365,16.2333478 492.446649,20.3399734 495.9,25.66 C499.353351,30.9800266 501.08,37.2799636 501.08,44.56 C501.08,51.8400364 499.330017,58.1166403 495.83,63.39 C492.329983,68.6633597 487.360032,72.699986 480.92,75.5 L502.9,107 L478.54,107 Z M478.12,44.56 C478.12,39.0533058 476.346684,34.8300147 472.8,31.89 C469.253316,28.9499853 464.073367,27.48 457.26,27.48 L438.78,27.48 L438.78,61.64 L457.26,61.64 C464.073367,61.64 469.253316,60.1466816 472.8,57.16 C476.346684,54.1733184 478.12,49.9733604 478.12,44.56 Z M566.46,108.68 C556.286616,108.68 547.116708,106.486689 538.95,102.1 C530.783293,97.7133114 524.390023,91.6700385 519.77,83.97 C515.149977,76.2699615 512.84,67.6133814 512.84,58 C512.84,48.3866186 515.149977,39.7300385 519.77,32.03 C524.390023,24.3299615 530.783293,18.2866886 538.95,13.9 C547.116708,9.5133114 556.286616,7.32 566.46,7.32 C576.633384,7.32 585.779959,9.5133114 593.9,13.9 C602.020041,18.2866886 608.41331,24.3299615 613.08,32.03 C617.74669,39.7300385 620.08,48.3866186 620.08,58 C620.08,67.6133814 617.74669,76.2699615 613.08,83.97 C608.41331,91.6700385 602.020041,97.7133114 593.9,102.1 C585.779959,106.486689 576.633384,108.68 566.46,108.68 Z M566.46,89.36 C572.246696,89.36 577.47331,88.0300133 582.14,85.37 C586.80669,82.7099867 590.469987,79.0000238 593.13,74.24 C595.790013,69.4799762 597.12,64.066697 597.12,58 C597.12,51.933303 595.790013,46.5200238 593.13,41.76 C590.469987,36.9999762 586.80669,33.2900133 582.14,30.63 C577.47331,27.9699867 572.246696,26.64 566.46,26.64 C560.673304,26.64 555.44669,27.9699867 550.78,30.63 C546.11331,33.2900133 542.450013,36.9999762 539.79,41.76 C537.129987,46.5200238 535.8,51.933303 535.8,58 C535.8,64.066697 537.129987,69.4799762 539.79,74.24 C542.450013,79.0000238 546.11331,82.7099867 550.78,85.37 C555.44669,88.0300133 560.673304,89.36 566.46,89.36 Z M655.22,108.68 C648.5933,108.68 642.503361,107.443346 636.95,104.97 C631.396639,102.496654 626.846684,98.9733562 623.3,94.4 L635.9,79.28 C641.220027,86.4667026 647.286633,90.06 654.1,90.06 C663.340046,90.06 667.96,84.6467208 667.96,73.82 L667.96,27.2 L633.52,27.2 L633.52,9 L690.5,9 L690.5,72.56 C690.5,84.6000602 687.513363,93.6299699 681.54,99.65 C675.566637,105.67003 666.793391,108.68 655.22,108.68 Z M788.78,88.8 L788.78,107 L712.9,107 L712.9,9 L786.96,9 L786.96,27.2 L735.44,27.2 L735.44,48.48 L780.94,48.48 L780.94,66.12 L735.44,66.12 L735.44,88.8 L788.78,88.8 Z M853.74,108.68 C843.753283,108.68 834.723374,106.510022 826.65,102.17 C818.576626,97.8299783 812.230023,91.8100385 807.61,84.11 C802.989977,76.4099615 800.68,67.7067152 800.68,58 C800.68,48.2932848 802.989977,39.5900385 807.61,31.89 C812.230023,24.1899615 818.576626,18.1700217 826.65,13.83 C834.723374,9.4899783 843.79995,7.32 853.88,7.32 C862.373376,7.32 870.049966,8.8133184 876.91,11.8 C883.770034,14.7866816 889.53331,19.079972 894.2,24.68 L879.64,38.12 C873.0133,30.4666284 864.800049,26.64 855,26.64 C848.933303,26.64 843.520024,27.9699867 838.76,30.63 C833.999976,33.2900133 830.290013,36.9999762 827.63,41.76 C824.969987,46.5200238 823.64,51.933303 823.64,58 C823.64,64.066697 824.969987,69.4799762 827.63,74.24 C830.290013,79.0000238 833.999976,82.7099867 838.76,85.37 C843.520024,88.0300133 848.933303,89.36 855,89.36 C864.800049,89.36 873.0133,85.4867054 879.64,77.74 L894.2,91.18 C889.53331,96.8733618 883.746701,101.213318 876.84,104.2 C869.933299,107.186682 862.233376,108.68 853.74,108.68 Z M929.76,27.48 L898.4,27.48 L898.4,9 L983.8,9 L983.8,27.48 L952.44,27.48 L952.44,107 L929.76,107 L929.76,27.48 Z M1028.18,108.68 C1020.43329,108.68 1012.94337,107.63001 1005.71,105.53 C998.476631,103.42999 992.666689,100.700017 988.28,97.34 L995.98,80.26 C1000.18002,83.3400154 1005.1733,85.813324 1010.96,87.68 C1016.7467,89.546676 1022.5333,90.48 1028.32,90.48 C1034.76003,90.48 1039.51998,89.5233429 1042.6,87.61 C1045.68002,85.6966571 1047.22,83.1533492 1047.22,79.98 C1047.22,77.646655 1046.31001,75.7100077 1044.49,74.17 C1042.66999,72.6299923 1040.33668,71.393338 1037.49,70.46 C1034.64332,69.526662 1030.79336,68.5000056 1025.94,67.38 C1018.4733,65.6066578 1012.36002,63.8333422 1007.6,62.06 C1002.83998,60.2866578 998.756684,57.4400196 995.35,53.52 C991.943316,49.5999804 990.24,44.373366 990.24,37.84 C990.24,32.1466382 991.779985,26.9900231 994.86,22.37 C997.940015,17.7499769 1002.5833,14.0866802 1008.79,11.38 C1014.9967,8.6733198 1022.57996,7.32 1031.54,7.32 C1037.79336,7.32 1043.90664,8.0666592 1049.88,9.56 C1055.85336,11.0533408 1061.07998,13.199986 1065.56,16 L1058.56,33.22 C1049.50662,28.086641 1040.45338,25.52 1031.4,25.52 C1025.0533,25.52 1020.36335,26.5466564 1017.33,28.6 C1014.29665,30.6533436 1012.78,33.3599832 1012.78,36.72 C1012.78,40.0800168 1014.52998,42.5766585 1018.03,44.21 C1021.53002,45.8433415 1026.8733,47.4533254 1034.06,49.04 C1041.5267,50.8133422 1047.63998,52.5866578 1052.4,54.36 C1057.16002,56.1333422 1061.24332,58.9333142 1064.65,62.76 C1068.05668,66.5866858 1069.76,71.766634 1069.76,78.3 C1069.76,83.900028 1068.19668,89.0099769 1065.07,93.63 C1061.94332,98.2500231 1057.25336,101.91332 1051,104.62 C1044.74664,107.32668 1037.14004,108.68 1028.18,108.68 Z" id="PROJECTS"></path>
            </g>
        </g>
    </g>
</svg>